<?xml version="1.0" encoding="utf-8"?>
<!-- Generator: Adobe Illustrator 27.5.0, SVG Export Plug-In . SVG Version: 6.00 Build 0)  -->
<svg version="1.1" xmlns="http://www.w3.org/2000/svg" xmlns:xlink="http://www.w3.org/1999/xlink" x="0px" y="0px"
	 viewBox="0 0 750 500" style="enable-background:new 0 0 750 500;" xml:space="preserve">
<g id="Background_Simple">
	<g>
		<path style="fill:#92E3A9;" d="M692.599,37.709c-12.346,2.021-27.431,7.654-34.132,9.013
			c-35.27,7.152-70.615,13.491-106.009,18.963c-57.545,8.896-115.363,15.87-173.117,17.268
			c-85.947,2.079-170.272-19.493-255.165-30.813C103.99,49.448,43.31,33.062,33.156,69.468
			c-13.17,47.221-12.618,103.943-14.081,153.303c-1.561,52.654-3.073,105.246-3.528,157.838c-0.156,18.006,1.094,36.506,7.194,52.25
			c7.636,19.711,21.825,28.182,37.681,30.936c28.683,4.983,57.85,3.416,86.811,2.171c39.155-1.683,78.305-5.659,117.411-9.885
			c67.687-7.316,136.514-19.687,204.278-16.983c47.569,1.898,94.358,12.17,141.025,22.474c18.901,4.174,37.454,10.628,56.608,13.036
			c15.513,1.951,39.218,3.833,51.965-12.075c10.706-13.361,11.143-44.602,12.507-62.06c2.938-37.611,3.303-75.509,3.102-113.151
			c-0.375-70.542-1.144-143.917-10.832-213.061C720.012,50.814,711.952,34.541,692.599,37.709z"/>
		<path style="opacity:0.7;fill:#FFFFFF;" d="M692.599,37.709c-12.346,2.021-27.431,7.654-34.132,9.013
			c-35.27,7.152-70.615,13.491-106.009,18.963c-57.545,8.896-115.363,15.87-173.117,17.268
			c-85.947,2.079-170.272-19.493-255.165-30.813C103.99,49.448,43.31,33.062,33.156,69.468
			c-13.17,47.221-12.618,103.943-14.081,153.303c-1.561,52.654-3.073,105.246-3.528,157.838c-0.156,18.006,1.094,36.506,7.194,52.25
			c7.636,19.711,21.825,28.182,37.681,30.936c28.683,4.983,57.85,3.416,86.811,2.171c39.155-1.683,78.305-5.659,117.411-9.885
			c67.687-7.316,136.514-19.687,204.278-16.983c47.569,1.898,94.358,12.17,141.025,22.474c18.901,4.174,37.454,10.628,56.608,13.036
			c15.513,1.951,39.218,3.833,51.965-12.075c10.706-13.361,11.143-44.602,12.507-62.06c2.938-37.611,3.303-75.509,3.102-113.151
			c-0.375-70.542-1.144-143.917-10.832-213.061C720.012,50.814,711.952,34.541,692.599,37.709z"/>
	</g>
</g>
<g id="Floor">
	<g>
		
			<line style="fill:none;stroke:#263238;stroke-linecap:round;stroke-linejoin:round;stroke-miterlimit:10;" x1="702.913" y1="484.944" x2="726.905" y2="484.944"/>
		
			<line style="fill:none;stroke:#263238;stroke-linecap:round;stroke-linejoin:round;stroke-miterlimit:10;" x1="165.072" y1="484.944" x2="691.693" y2="484.944"/>
		
			<line style="fill:none;stroke:#263238;stroke-linecap:round;stroke-linejoin:round;stroke-miterlimit:10;" x1="27.77" y1="484.944" x2="161.33" y2="484.944"/>
	</g>
</g>
<g id="Plant">
	<g>
		<path style="fill:#263238;" d="M610.711,393.339c3.078,1.344,10.606,1.174,10.612,1.174c0.078-0.002-1.618-4.928-1.761-5.227
			c-1.651-3.456-6.875-9.161-11.125-8.587c-3.062,0.414-4.764,3.478-4.073,6.361C605.069,390.006,608.089,392.193,610.711,393.339z"
			/>
		<path style="fill:#263238;" d="M613.309,415.144c3.193,0.466,9.911-1.483,10.445-1.64c1.061,3.761,2.454,7.534,4.075,11.275
			c0.924,2.14,1.921,4.266,2.948,6.385c-0.613-0.897-1.168-1.696-1.257-1.799c-2.506-2.897-9.051-7.02-12.997-5.343
			c-2.845,1.207-3.677,4.612-2.249,7.21c1.457,2.653,4.95,3.966,7.78,4.378c2.873,0.419,8.633-1.127,10.153-1.557
			c0.402,0.809,0.795,1.621,1.201,2.428c1.946,3.874,3.903,7.731,5.708,11.574c0.637,1.353,1.213,2.71,1.797,4.065
			c-0.545-0.797-1.011-1.463-1.093-1.558c-2.505-2.896-9.05-7.019-12.997-5.343c-2.844,1.208-3.677,4.613-2.249,7.211
			c1.459,2.653,4.95,3.965,7.781,4.378c2.741,0.4,8.072-0.979,9.879-1.481c0.555,1.406,1.113,2.813,1.587,4.2
			c0.302,0.955,0.661,1.852,0.91,2.828c0.269,0.961,0.533,1.912,0.796,2.854c0.44,1.832,0.905,3.72,1.288,5.518
			c0.277,1.249,0.517,2.444,0.763,3.647c-0.618-1.355-1.884-3.982-2.015-4.19c-2.037-3.243-7.882-8.309-12.038-7.25
			c-2.994,0.763-4.333,4.002-3.315,6.786c1.039,2.843,4.291,4.67,7.026,5.506c3.012,0.92,9.68,0.079,10.513-0.031
			c0.4,1.992,0.769,3.934,1.089,5.772c0.24,1.36,0.458,2.667,0.659,3.923h2.671c-0.252-1.398-0.527-2.86-0.832-4.39
			c-0.397-2.025-0.863-4.18-1.362-6.389c0.501-0.199,3.345-1.35,5.865-2.758c2.195,2.377,7.82,5.159,8.548,5.513
			c-0.765,1.883-1.528,3.706-2.276,5.415c-0.394,0.906-0.776,1.76-1.157,2.609h2.824c0.224-0.537,0.446-1.062,0.674-1.621
			c0.786-1.908,1.587-3.963,2.389-6.08c0.807,0.169,7.408,1.509,10.484,0.815c2.789-0.631,6.169-2.209,7.419-4.968
			c1.223-2.7,0.128-6.031-2.802-7.014c-4.065-1.366-10.271,3.251-12.544,6.333c-0.135,0.182-1.37,2.317-2.126,3.676
			c0.323-0.867,0.647-1.705,0.969-2.602c0.65-1.768,1.245-3.552,1.892-5.47c0.28-0.937,0.563-1.883,0.85-2.839
			c0.303-0.942,0.504-1.975,0.764-2.971c0.553-2.322,1-4.701,1.398-7.108c1.55,0.564,7.083,2.489,9.95,2.287
			c2.854-0.201,6.432-1.248,8.084-3.786c1.618-2.484,1.041-5.942-1.706-7.359c-3.812-1.966-10.645,1.659-13.36,4.36
			c-0.169,0.168-1.899,2.326-2.826,3.529c0.227-1.449,0.462-2.893,0.644-4.366c0.528-4.252,0.93-8.573,1.35-12.882
			c0.128-1.32,0.271-2.634,0.41-3.949c0.55,0.207,7.077,2.637,10.288,2.411c2.853-0.2,6.433-1.249,8.085-3.786
			c1.618-2.484,1.041-5.942-1.706-7.358c-3.811-1.966-10.645,1.658-13.359,4.359c-0.204,0.204-2.689,3.312-3.283,4.133
			c0.306-2.897,0.638-5.781,1.081-8.612c0.605-3.905,1.415-7.704,2.472-11.326c0.255,0.097,7.057,2.664,10.345,2.433
			c2.854-0.201,6.433-1.249,8.085-3.786c1.618-2.484,1.041-5.941-1.706-7.358c-3.812-1.966-10.645,1.658-13.36,4.36
			c-0.213,0.212-2.884,3.557-3.326,4.198c0.064-0.215,0.106-0.445,0.172-0.659c1.177-3.853,2.802-7.437,4.487-10.718
			c0.975-1.909,2.015-3.678,3.064-5.377c1.218,0.608,6.814,3.325,9.796,3.445c2.858,0.114,6.531-0.535,8.451-2.875
			c1.881-2.291,1.687-5.792-0.886-7.501c-3.574-2.373-10.763,0.479-13.758,2.866c-0.163,0.13-1.672,1.633-2.756,2.743
			c0.485-0.76,0.972-1.553,1.451-2.271c1.794-2.702,3.604-5.065,5.223-7.146c0.93-1.175,1.795-2.22,2.614-3.189
			c1.505-0.026,7.575-0.211,10.228-1.456c2.588-1.216,5.55-3.484,6.176-6.446c0.613-2.901-1.172-5.918-4.244-6.248
			c-4.264-0.46-9.332,5.384-10.889,8.883c-0.134,0.303-1.697,5.273-1.618,5.272c0,0,0.073-0.001,0.091-0.001
			c-0.808,0.916-1.662,1.908-2.574,3.011c-1.668,2.049-3.534,4.379-5.393,7.053c-1.866,2.667-3.817,5.617-5.593,8.909
			c-1.784,3.298-3.492,6.859-4.777,10.755c-0.015,0.044-0.024,0.092-0.039,0.136c0.022-1.257-0.033-4.772-0.068-5.04
			c-0.493-3.798-3.676-10.848-7.894-11.628c-3.038-0.561-5.611,1.819-5.854,4.774c-0.247,3.018,1.941,6.038,4.075,7.944
			c2.406,2.149,9.084,4.23,9.616,4.395c-1.191,3.721-2.109,7.637-2.822,11.651c-0.409,2.295-0.75,4.618-1.063,6.953
			c-0.016-1.087-0.038-2.059-0.056-2.194c-0.493-3.799-3.675-10.847-7.893-11.627c-3.039-0.562-5.612,1.819-5.853,4.773
			c-0.248,3.018,1.94,6.038,4.074,7.943c2.165,1.933,7.823,3.823,9.326,4.302c-0.11,0.897-0.231,1.791-0.338,2.688
			c-0.515,4.304-1.009,8.601-1.623,12.802c-0.215,1.48-0.482,2.93-0.744,4.381c-0.015-0.965-0.036-1.778-0.052-1.901
			c-0.493-3.799-3.675-10.848-7.892-11.627c-3.039-0.561-5.613,1.819-5.855,4.774c-0.247,3.016,1.941,6.038,4.075,7.943
			c2.065,1.845,7.273,3.636,9.057,4.214c-0.313,1.479-0.624,2.96-0.994,4.379c-0.275,0.963-0.472,1.909-0.801,2.861
			c-0.306,0.948-0.609,1.889-0.91,2.819c-0.645,1.771-1.298,3.602-1.97,5.314c-0.458,1.194-0.918,2.324-1.376,3.462
			c0.231-1.471,0.625-4.36,0.631-4.605c0.059-2.544-0.845-6.68-2.643-9.587c0.011-0.376-0.01-0.75-0.07-1.122
			c-0.47-2.927-3.22-5.101-6.206-4.306c-4.144,1.103-6.773,8.379-6.969,12.202c-0.012,0.226,0.136,2.688,0.255,4.24
			c-0.21-0.902-0.401-1.779-0.627-2.704c-0.435-1.833-0.923-3.649-1.439-5.606c-0.283-0.936-0.569-1.881-0.858-2.836
			c-0.266-0.952-0.669-1.925-1.002-2.899c-0.82-2.241-1.759-4.473-2.756-6.699c1.605-0.385,7.282-1.832,9.561-3.581
			c2.27-1.741,4.676-4.591,4.655-7.617c-0.022-2.965-2.41-5.531-5.482-5.197c-4.264,0.463-7.965,7.256-8.739,11.006
			c-0.048,0.234-0.301,2.988-0.411,4.503c-0.609-1.333-1.211-2.668-1.871-3.998c-1.905-3.838-3.953-7.664-5.98-11.489
			c-0.622-1.172-1.226-2.346-1.837-3.519c0.573-0.131,7.358-1.706,9.911-3.664c2.269-1.741,4.677-4.59,4.655-7.618
			c-0.021-2.964-2.41-5.53-5.481-5.196c-4.264,0.463-7.964,7.255-8.738,11.006c-0.058,0.283-0.416,4.245-0.458,5.258
			c-1.343-2.585-2.657-5.174-3.85-7.779c-1.649-3.591-3.069-7.206-4.186-10.81c0.267-0.061,7.355-1.672,9.971-3.678
			c2.27-1.741,4.677-4.59,4.655-7.618c-0.021-2.964-2.409-5.53-5.482-5.196c-4.264,0.463-7.964,7.255-8.737,11.006
			c-0.061,0.295-0.444,4.559-0.457,5.336c-0.066-0.214-0.159-0.429-0.222-0.643c-1.143-3.864-1.766-7.749-2.17-11.415
			c-0.239-2.13-0.348-4.179-0.41-6.175c1.351-0.165,7.517-0.986,10.07-2.532c2.448-1.482,5.153-4.049,5.464-7.06
			c0.304-2.949-1.788-5.762-4.877-5.767c-4.289-0.008-8.713,6.337-9.894,9.98c-0.064,0.199-0.495,2.285-0.786,3.809
			c-0.014-0.901-0.046-1.831-0.042-2.695c0.006-3.243,0.211-6.213,0.414-8.841c0.127-1.494,0.273-2.842,0.422-4.102
			c1.241-0.854,6.201-4.355,7.727-6.858c1.489-2.442,2.707-5.967,1.595-8.783c-1.089-2.758-4.242-4.289-6.986-2.871
			c-3.81,1.97-4.813,9.639-4.183,13.417c0.055,0.326,1.494,5.334,1.56,5.29c0,0,0.06-0.042,0.075-0.052
			c-0.168,1.209-0.333,2.509-0.485,3.931c-0.261,2.629-0.532,5.602-0.608,8.858c-0.085,3.253-0.085,6.791,0.25,10.517
			c0.332,3.734,0.871,7.647,1.948,11.605c0.012,0.045,0.031,0.09,0.043,0.135c-0.675-1.06-2.661-3.961-2.839-4.166
			c-2.506-2.897-9.05-7.02-12.997-5.343c-2.844,1.208-3.677,4.613-2.249,7.211C606.988,413.42,610.479,414.731,613.309,415.144z"/>
		<path style="fill:#263238;" d="M686.855,394.994c0.067,0.042,1.369-5.004,1.415-5.331c0.528-3.793-0.682-11.433-4.543-13.299
			c-2.782-1.344-5.892,0.273-6.906,3.059c-1.036,2.844,0.277,6.336,1.831,8.737C680.478,390.98,686.851,394.991,686.855,394.994z"/>
	</g>
</g>
<g id="Hearts">
	<path style="fill:none;stroke:#263238;stroke-linecap:round;stroke-linejoin:round;stroke-miterlimit:10;" d="M439.124,81.722
		c-0.001-0.117-0.004-0.235-0.007-0.353c-0.204-6.41-5.729-11.896-12.169-11.896c-5.762,0-10.582,3.985-11.887,9.346
		c-1.305-5.361-6.125-9.346-11.887-9.346c-4.421,0-8.586,2.46-10.725,6.329c-6.631,11.994,8.945,24.22,17.005,30.128
		c0.991,0.726,2.007,1.423,2.954,2.208c1.203,0.999,2.027,2.76,3.737,1.527c2.631-1.898,4.987-4.139,7.533-6.145
		c4.362-3.436,10.018-7.373,12.821-12.316C438.133,88.32,439.157,85.059,439.124,81.722z"/>
	<path style="fill:none;stroke:#263238;stroke-linecap:round;stroke-linejoin:round;stroke-miterlimit:10;" d="M215.687,78.598
		c-0.042-0.055-0.084-0.109-0.126-0.163c-2.331-2.94-6.838-3.59-9.863-1.345c-2.707,2.009-3.581,5.561-2.326,8.534
		c-2.482-2.063-6.135-2.255-8.842-0.246c-2.077,1.541-3.175,4.149-2.831,6.712c1.067,7.945,12.645,8.258,18.491,8.223
		c0.719-0.004,1.439-0.031,2.157,0.007c0.914,0.05,1.914,0.59,2.288-0.585c0.574-1.809,0.899-3.683,1.396-5.512
		c0.851-3.135,2.135-6.955,1.728-10.255C217.521,82.043,216.865,80.154,215.687,78.598z"/>
	<path style="fill:none;stroke:#263238;stroke-linecap:round;stroke-linejoin:round;stroke-miterlimit:10;" d="M277.015,44.299
		c0.003-0.069,0.005-0.137,0.006-0.206c0.069-3.751-2.997-7.118-6.76-7.307c-3.367-0.169-6.299,2.017-7.219,5.111
		c-0.605-3.17-3.304-5.64-6.67-5.809c-2.583-0.13-5.088,1.185-6.452,3.383c-4.226,6.812,4.514,14.412,9.05,18.101
		c0.557,0.453,1.131,0.89,1.661,1.377c0.674,0.619,1.103,1.672,2.138,1.002c1.593-1.032,3.035-2.272,4.581-3.369
		c2.649-1.879,6.069-4.013,7.852-6.819C276.243,48.124,276.937,46.249,277.015,44.299z"/>
	<path style="fill:none;stroke:#263238;stroke-linecap:round;stroke-linejoin:round;stroke-miterlimit:10;" d="M257.306,295.724
		c-0.041-0.055-0.084-0.109-0.126-0.163c-2.331-2.94-6.838-3.59-9.863-1.345c-2.707,2.009-3.581,5.561-2.326,8.534
		c-2.482-2.063-6.135-2.254-8.842-0.246c-2.077,1.541-3.175,4.149-2.831,6.712c1.067,7.945,12.645,8.258,18.491,8.223
		c0.719-0.004,1.439-0.031,2.158,0.007c0.913,0.05,1.914,0.59,2.287-0.585c0.574-1.809,0.899-3.683,1.396-5.512
		c0.851-3.135,2.135-6.955,1.728-10.255C259.14,299.169,258.484,297.28,257.306,295.724z"/>
	<path style="fill:none;stroke:#263238;stroke-linecap:round;stroke-linejoin:round;stroke-miterlimit:10;" d="M540.704,332.821
		c0.01-0.068,0.019-0.136,0.028-0.204c0.47-3.722-2.218-7.398-5.939-7.989c-3.329-0.529-6.479,1.331-7.725,4.309
		c-0.262-3.217-2.681-5.961-6.01-6.49c-2.554-0.405-5.186,0.634-6.777,2.673c-4.931,6.321,2.946,14.813,7.06,18.965
		c0.506,0.51,1.029,1.006,1.504,1.547c0.604,0.688,0.918,1.781,2.019,1.225c1.694-0.855,3.261-1.934,4.915-2.859
		c2.835-1.585,6.464-3.34,8.536-5.939C539.526,336.542,540.417,334.751,540.704,332.821z"/>
	<path style="fill:none;stroke:#263238;stroke-linecap:round;stroke-linejoin:round;stroke-miterlimit:10;" d="M371.374,438.711
		c0.04-0.055,0.08-0.112,0.119-0.168c2.14-3.082,1.458-7.585-1.566-9.83c-2.706-2.01-6.359-1.819-8.842,0.244
		c1.257-2.973,0.383-6.525-2.324-8.535c-2.076-1.542-4.89-1.839-7.244-0.768c-7.297,3.32-4.245,14.494-2.52,20.079
		c0.212,0.687,0.446,1.368,0.617,2.067c0.217,0.889-0.011,2.003,1.222,2.02c1.898,0.026,3.786-0.205,5.681-0.259
		c3.247-0.092,7.276,0.031,10.316-1.313C368.608,441.465,370.226,440.29,371.374,438.711z"/>
	<path style="fill:none;stroke:#263238;stroke-linecap:round;stroke-linejoin:round;stroke-miterlimit:10;" d="M734.249,208.806
		c0.04-0.055,0.08-0.111,0.12-0.168c2.14-3.082,1.458-7.584-1.567-9.83c-2.706-2.009-6.359-1.819-8.842,0.244
		c1.257-2.973,0.383-6.525-2.324-8.535c-2.076-1.542-4.89-1.839-7.244-0.768c-7.297,3.32-4.245,14.494-2.52,20.079
		c0.212,0.687,0.446,1.368,0.617,2.067c0.217,0.889-0.011,2.003,1.222,2.02c1.898,0.026,3.786-0.205,5.68-0.259
		c3.247-0.092,7.276,0.031,10.316-1.313C731.483,211.559,733.101,210.384,734.249,208.806z"/>
	<path style="fill:none;stroke:#263238;stroke-linecap:round;stroke-linejoin:round;stroke-miterlimit:10;" d="M51.627,203.931
		c-0.053-0.084-0.108-0.168-0.163-0.251c-3.014-4.535-9.453-6.022-14.1-3.143c-4.158,2.577-5.854,7.607-4.399,12.059
		c-3.339-3.285-8.599-4.005-12.757-1.428c-3.19,1.977-5.096,5.614-4.909,9.363c0.578,11.62,17.285,13.477,25.743,14.136
		c1.04,0.081,2.084,0.129,3.119,0.273c1.315,0.183,2.697,1.085,3.379-0.569c1.05-2.546,1.748-5.217,2.688-7.802
		c1.612-4.43,3.932-9.799,3.744-14.62C53.862,209.135,53.143,206.324,51.627,203.931z"/>
</g>
<g id="Character_4">
	<g>
		<g>
			<path style="fill:#263238;stroke:#263238;stroke-linecap:round;stroke-linejoin:round;stroke-miterlimit:10;" d="M608.123,51.122
				c0,0-7.198-5.822-9.316-6.457c-2.117-0.635-8.901,2.032-8.689,4.89c0.212,2.858,14.088,13.953,14.088,13.953L608.123,51.122z"/>
			<path style="fill:#92E3A9;stroke:#263238;stroke-linecap:round;stroke-linejoin:round;stroke-miterlimit:10;" d="M667.094,64.633
				c0,0-6.534,0.119-12.117-0.969c-2.541-0.495-7.981-2.49-8.726-2.697c-4.362-1.212-8.724-0.696-8.724-0.696l-7.271-0.485
				l-16.285-7.228c0,0-5.466-3.012-7.586-2.119s-5.02,5.466-4.462,9.928c0.558,4.462,2.789,7.809,2.789,7.809
				s-0.223,15.84-1.673,20.86c-1.45,5.02-5.243,12.717-4.908,13.275c0.335,0.558,10.82,12.494,13.386,14.725
				c2.566,2.231,9.428,8.973,9.428,8.973s2.62-1.388,3.512-2.838s1.45-5.466,1.45-5.466l13.721-26.772c0,0,0.453-1.336,1.05-3.272
				l6.058-9.455c0,0,20.166,0.111,21.569-0.242C669.709,77.609,667.094,64.633,667.094,64.633z"/>
			<path style="fill:#878787;stroke:#263238;stroke-linecap:round;stroke-linejoin:round;stroke-miterlimit:10;" d="
				M630.839,107.745c0,0-6.013-4.899-12.916-7.794c-6.903-2.895-16.924-5.79-16.924-5.79l-4.231,7.571
				c0,0,19.596,8.239,23.605,11.134c4.008,2.895,5.535,4.837,5.535,4.837S629.948,113.09,630.839,107.745z"/>
			<path style="fill:none;stroke:#263238;stroke-width:2;stroke-linecap:round;stroke-linejoin:round;stroke-miterlimit:10;" d="
				M603.301,89.878c0,1.673-1.357,3.03-3.03,3.03s-3.03-1.356-3.03-3.03c0-1.673,1.357-3.03,3.03-3.03
				S603.301,88.205,603.301,89.878z"/>
			<polygon style="fill:#878787;stroke:#263238;stroke-linecap:round;stroke-linejoin:round;stroke-miterlimit:10;" points="
				601.297,91.812 605.549,104.869 608.903,107.085 602.375,90.974 			"/>
			<g>
				<path style="fill:none;stroke:#263238;stroke-linecap:round;stroke-linejoin:round;stroke-miterlimit:10;" d="M623.898,88.421
					c1.274-0.614,2.131-1.064,2.305-1.239"/>
				<path style="fill:none;stroke:#263238;stroke-linecap:round;stroke-linejoin:round;stroke-miterlimit:10;" d="M608.793,95.943
					c0,0,5.138-2.948,11.34-5.77"/>
				
					<line style="fill:none;stroke:#263238;stroke-linecap:round;stroke-linejoin:round;stroke-miterlimit:10;" x1="615.717" y1="87.49" x2="606.156" y2="92.117"/>
				<path style="fill:none;stroke:#263238;stroke-linecap:round;stroke-linejoin:round;stroke-miterlimit:10;" d="M614.792,63.434
					c0,0-0.308,6.785,0.617,10.486"/>
			</g>
			<path style="fill:#263238;stroke:#263238;stroke-linecap:round;stroke-linejoin:round;stroke-miterlimit:10;" d="M668.305,77.962
				c1.404-0.353-1.212-13.329-1.212-13.329s-6.534,0.119-12.117-0.969c0,0-7.754,12.04-8.24,14.541
				C646.736,78.204,666.902,78.315,668.305,77.962z"/>
			<path style="fill:#FFFFFF;stroke:#263238;stroke-linecap:round;stroke-linejoin:round;stroke-miterlimit:10;" d="M616.911,63.356
				c0,0,1.257,10.617,3.432,8.713c2.175-1.903,5.541-3.547,5.541-3.547L616.911,63.356z"/>
			<g>
				<path style="fill:#FFFFFF;stroke:#263238;stroke-linecap:round;stroke-linejoin:round;stroke-miterlimit:10;" d="
					M612.885,47.409l0.273,5.739c0,0-1.366-1.093-1.366,1.913c0,3.006,2.869,3.962,2.869,3.962s1.64,3.826,2.46,5.192
					c0.82,1.366,3.628,3.517,5.95,4.337c2.323,0.82,4.099,0.137,5.876-1.913s3.478-5.703,3.751-7.48
					c0.273-1.776,0.683-5.056,0.683-5.056s0.546-3.963,0.41-7.652c-0.137-3.689-2.323-8.335-3.689-9.292
					c-1.366-0.957-8.003-2.632-11.282-1.539c-3.279,1.093-5.623,3.853-6.169,6.586C612.103,44.941,612.885,47.409,612.885,47.409z"
					/>
				<g>
					<path style="fill:none;stroke:#263238;stroke-linecap:round;stroke-linejoin:round;stroke-miterlimit:10;" d="M613.158,53.148
						c0,0-0.098-0.076-0.24-0.133L613.158,53.148z"/>
					<path style="fill:#263238;stroke:#263238;stroke-linecap:round;stroke-linejoin:round;stroke-miterlimit:10;" d="
						M635.024,42.31c-0.799-3.355-4.923-5.149-4.923-5.149c-1.366-0.956-8.003-2.632-11.282-1.539
						c-3.279,1.093-5.623,3.853-6.169,6.586c-0.547,2.733,0.235,5.201,0.235,5.201l0.273,5.739c0,0,1.743,1.316,1.91,0.649
						c0.167-0.667-0.167-2.334-0.083-3.001c0.083-0.667,1.167-2.668,1.167-2.668s-0.083,0.667,1.167,0.917
						c1.251,0.25,5.336-0.083,6.586-1.25c1.25-1.167,4.335-3.918,4.335-3.918s-2.167,3.668-0.667,3.168
						c1.501-0.5,2.418-1.25,2.418-1.25s0.583,1.834,1.25,2.418c0.667,0.583,1.167,0.667,1.334,1c0.167,0.333,0.75,4.252,0.75,4.252
						s0.059-0.065,0.154-0.169c0.087-0.782,0.21-2.067,0.28-3.528C634.265,48.634,635.686,45.092,635.024,42.31z"/>
				</g>
				<path style="fill:none;stroke:#263238;stroke-linecap:round;stroke-linejoin:round;stroke-miterlimit:10;" d="M623.154,58.549
					c0,0,1,0.834,2.167,0.667c1.167-0.167,1.584-1,1.584-1"/>
				<path style="fill:none;stroke:#263238;stroke-linecap:round;stroke-linejoin:round;stroke-miterlimit:10;" d="M626.489,62.383
					c0,0-2.418,0.667-4.085,0c-1.667-0.667-2.168-1.751-2.168-1.751"/>
				<ellipse style="fill:#263238;" cx="620.875" cy="55.005" rx="0.695" ry="1.042"/>
				<path style="fill:#263238;" d="M629.102,54.797c0,0.576-0.311,1.042-0.695,1.042c-0.384,0-0.695-0.467-0.695-1.042
					s0.311-1.042,0.695-1.042C628.79,53.755,629.102,54.221,629.102,54.797z"/>
				<path style="fill:none;stroke:#263238;stroke-linecap:round;stroke-linejoin:round;stroke-miterlimit:10;" d="M618.402,52.213
					c0,0,2.251-1.334,4.085,0.083"/>
				<path style="fill:none;stroke:#263238;stroke-linecap:round;stroke-linejoin:round;stroke-miterlimit:10;" d="M626.656,51.963
					c0,0,2.251-1.667,3.752,0"/>
			</g>
			<g>
				<path style="fill:none;stroke:#263238;stroke-linecap:round;stroke-linejoin:round;stroke-miterlimit:10;" d="M603.203,10.228
					c0,0,1.638-0.391,2.167,0.138c0.529,0.529,1.059,1.588,0.635,1.905c-0.423,0.318-0.423,0.423-1.165,0.212
					C604.1,12.272,603.259,11.677,603.203,10.228z"/>
				<path style="fill:#FFFFFF;stroke:#263238;stroke-linecap:round;stroke-linejoin:round;stroke-miterlimit:10;" d="
					M597.283,21.847c0,0,1.524,21.018,1.524,22.817c0,1.8-5.822,6.987-6.563,6.881c-0.741-0.106-4.34-4.34-4.023-8.469
					c0.318-4.128,4.925-23.02,4.925-23.02l1.329-3.597c0,0,1.812-6.858,2.453-7.244c0.641-0.386,6.804,0.271,6.804,0.271
					s0.157,1.566,0.055,1.977c-0.102,0.411-0.102,0.411-0.102,0.411s-0.397,5.811-0.961,6.325c-0.564,0.514-1.906,0.529-1.906,0.529
					s0.441,1.16-0.765,2.061S597.283,21.847,597.283,21.847z"/>
				
					<line style="fill:none;stroke:#263238;stroke-linecap:round;stroke-linejoin:round;stroke-miterlimit:10;" x1="603.685" y1="11.875" x2="598.49" y2="11.001"/>
				
					<line style="fill:none;stroke:#263238;stroke-linecap:round;stroke-linejoin:round;stroke-miterlimit:10;" x1="598.278" y1="13.224" x2="603.147" y2="14.283"/>
				
					<line style="fill:none;stroke:#263238;stroke-linecap:round;stroke-linejoin:round;stroke-miterlimit:10;" x1="598.278" y1="15.871" x2="602.936" y2="16.4"/>
				<path style="fill:#263238;stroke:#263238;stroke-linecap:round;stroke-linejoin:round;stroke-miterlimit:10;" d="
					M598.807,44.664c0-0.866-0.353-6.181-0.719-11.463c-0.73,0.082-1.728,0.168-3.092,0.242c-1.844,0.1-3.496-0.435-4.732-1.028
					c-1,4.498-1.908,8.909-2.043,10.661c-0.318,4.129,3.282,8.363,4.023,8.469C592.985,51.651,598.807,46.464,598.807,44.664z"/>
			</g>
			<g>
				<path style="fill:none;stroke:#263238;stroke-linecap:round;stroke-linejoin:round;stroke-miterlimit:10;" d="M664.646,35.76
					c0,0-1.544-0.672-2.158-0.243c-0.614,0.428-1.32,1.378-0.959,1.765c0.361,0.387,0.343,0.491,1.109,0.412
					C663.405,37.615,664.338,37.177,664.646,35.76z"/>
				<path style="fill:#FFFFFF;stroke:#263238;stroke-linecap:round;stroke-linejoin:round;stroke-miterlimit:10;" d="M668.44,48.236
					c0,0-5.182,20.426-5.497,22.198c-0.315,1.772,4.509,7.898,5.257,7.924c0.748,0.026,5.033-3.513,5.444-7.633
					s-0.817-23.527-0.817-23.527l-0.679-3.774c0,0-0.582-7.069-1.146-7.562c-0.564-0.493-6.747-0.925-6.747-0.925
					s-0.429,1.514-0.4,1.937s0.029,0.423,0.029,0.423s-0.627,5.79-0.162,6.396c0.465,0.605,3.404,0.917,3.404,0.917
					s-0.909,2.012,0.12,3.11C668.274,48.817,668.44,48.236,668.44,48.236z"/>
				
					<line style="fill:none;stroke:#263238;stroke-linecap:round;stroke-linejoin:round;stroke-miterlimit:10;" x1="663.884" y1="37.297" x2="669.152" y2="37.347"/>
				
					<line style="fill:none;stroke:#263238;stroke-linecap:round;stroke-linejoin:round;stroke-miterlimit:10;" x1="668.971" y1="39.572" x2="663.991" y2="39.762"/>
				
					<line style="fill:none;stroke:#263238;stroke-linecap:round;stroke-linejoin:round;stroke-miterlimit:10;" x1="668.507" y1="42.178" x2="663.829" y2="41.883"/>
				<path style="fill:#263238;stroke:#263238;stroke-linecap:round;stroke-linejoin:round;stroke-miterlimit:10;" d="
					M662.943,70.434c0.152-0.853,1.43-6.023,2.716-11.16c0.705,0.208,1.672,0.468,3.002,0.779c1.799,0.421,3.518,0.184,4.839-0.184
					c0.197,4.603,0.318,9.106,0.144,10.854c-0.41,4.12-4.696,7.659-5.444,7.633C667.451,78.332,662.628,72.206,662.943,70.434z"/>
			</g>
			<g>
				<path style="fill:#FFFFFF;stroke:#263238;stroke-linecap:round;stroke-linejoin:round;stroke-miterlimit:10;" d="
					M521.464,126.993c0,0-3.94,1.126-4.925,1.548c-0.985,0.422-9.99-0.422-11.96-0.141c-1.97,0.281-4.081,0.985-3.799,2.955
					c0.282,1.97,1.97,4.081,5.628,5.628c3.658,1.548,6.332,1.829,8.161,1.829c1.829,0,4.503-0.141,4.503-0.141
					s3.096,0.985,4.503,1.126c1.407,0.141,1.548,0.281,2.251-0.985c0.703-1.266,1.97-4.081,1.97-4.081L521.464,126.993z"/>
				<path style="fill:#FFFFFF;stroke:#263238;stroke-linecap:round;stroke-linejoin:round;stroke-miterlimit:10;" d="
					M516.398,136.702c-3.658,0-4.925,0-10.553-2.533c-4.506-2.028-3.962-4.322-3.565-5.158c-0.989,0.453-1.667,1.174-1.5,2.344
					c0.281,1.97,1.97,4.081,5.628,5.628c3.658,1.548,6.332,1.829,8.161,1.829c1.829,0,4.503-0.141,4.503-0.141
					s3.096,0.985,4.503,1.126c1.407,0.141,1.548,0.281,2.251-0.985c0,0-1.97-0.985-3.518-1.548
					C520.76,136.702,520.057,136.702,516.398,136.702z"/>
			</g>
			<path style="fill:#263238;stroke:#263238;stroke-linecap:round;stroke-linejoin:round;stroke-miterlimit:10;" d="M586.19,103.072
				c0,0-31.519-8.302-34.052-7.317c-2.533,0.985-18.574,19.699-19.559,20.684c-0.985,0.985-9.568,9.709-9.568,10.272
				c0,0.563,5.488,5.066,8.02,5.347c2.533,0.281,9.85-6.332,11.82-7.317c1.97-0.985,9.99-6.754,9.99-6.754l3.377-4.643
				c0,0,24.765,10.131,27.016,11.538c2.251,1.407,8.865,5.91,12.664,8.302c3.799,2.392,7.035,2.533,7.035,2.533
				s0.281-15.197-2.392-20.121C597.869,110.67,586.19,103.072,586.19,103.072z"/>
			<path style="fill:#FFFFFF;stroke:#263238;stroke-linecap:round;stroke-linejoin:round;stroke-miterlimit:10;" d="M524.278,124.46
				c0,0-3.94,1.407-3.799,2.955c0.141,1.548,5.065,8.302,7.458,8.583c2.392,0.281,5.628-2.533,5.628-3.236
				c0-0.704-4.925-4.081-6.473-6.332C525.544,124.178,525.966,122.49,524.278,124.46z"/>
			<g>
				<path style="fill:#FFFFFF;stroke:#263238;stroke-linecap:round;stroke-linejoin:round;stroke-miterlimit:10;" d="
					M572.119,144.018l-8.443,5.066c0,0-8.724,1.97-10.975,3.799c-2.251,1.829-0.281,5.91,4.643,7.317s11.397,0.281,12.664-0.422
					c1.266-0.704,5.628-2.111,6.754-2.533c1.126-0.422,3.658-1.829,4.221-4.081c0.563-2.251,0.985-5.347,0.985-5.347
					L572.119,144.018z"/>
				<path style="fill:#FFFFFF;stroke:#263238;stroke-linecap:round;stroke-linejoin:round;stroke-miterlimit:10;" d="M557.345,160.2
					c4.925,1.407,11.397,0.281,12.664-0.422c1.266-0.704,5.628-2.111,6.754-2.533c1.126-0.422,3.659-1.829,4.221-4.08
					c0.005-0.021,0.01-0.043,0.015-0.063c-0.745,0.247-1.796,0.608-2.97,1.048c-2.251,0.844-8.161,4.503-14.915,4.643
					c-6.754,0.141-10.413-5.91-10.413-5.91C550.45,154.712,552.42,158.793,557.345,160.2z"/>
			</g>
			<path style="fill:#263238;stroke:#263238;stroke-linecap:round;stroke-linejoin:round;stroke-miterlimit:10;" d="
				M620.945,126.008c0,0-1.688-6.05-7.598-13.367c-5.91-7.317-16.041-14.915-21.669-15.9c-5.628-0.985-8.583,4.925-9.005,9.146
				c-0.422,4.221-6.895,29.408-6.895,29.408s-2.392,1.126-2.533,2.111s-0.422,1.97-0.422,1.97s5.628,5.488,9.287,5.769
				s3.658,0.281,3.658,0.281l6.332-14.212l2.336-5.788c0,0,4.84,10.712,9.484,11.838c4.643,1.126,14.915-3.659,16.463-7.598
				C621.93,125.726,620.945,126.008,620.945,126.008z"/>
			<path style="fill:#FFFFFF;stroke:#263238;stroke-linecap:round;stroke-linejoin:round;stroke-miterlimit:10;" d="
				M573.245,137.405c0,0,6.05,3.799,8.302,4.643c2.251,0.844,5.488,0.422,5.488,1.548s-1.548,3.518-2.251,4.362
				c-0.704,0.844-4.643,2.111-7.598,0.985c-2.955-1.126-6.473-4.081-6.895-5.206c-0.422-1.126,0.704-2.814,0.985-3.236
				C571.556,140.079,570.712,136.561,573.245,137.405z"/>
		</g>
		<g>
			<polyline style="fill:none;stroke:#263238;stroke-linecap:round;stroke-linejoin:round;stroke-miterlimit:10;" points="
				636.13,148.647 666.982,119.956 702.158,148.647 			"/>
			
				<line style="fill:none;stroke:#263238;stroke-linecap:round;stroke-linejoin:round;stroke-miterlimit:10;" x1="666.982" y1="34.683" x2="666.982" y2="1.806"/>
			
				<line style="fill:none;stroke:#263238;stroke-linecap:round;stroke-linejoin:round;stroke-miterlimit:10;" x1="666.982" y1="119.956" x2="666.982" y2="44.848"/>
		</g>
		<g>
			<path style="fill:#878787;stroke:#263238;stroke-linecap:round;stroke-linejoin:round;stroke-miterlimit:10;" d="
				M600.171,136.913c2.404,1.102,5.609,0.601,9.716-1.302c4.107-1.903,6.811-5.709,7.412-10.317c0.5-3.831,0.005-6.994-0.401-8.714
				c-1.492-1.027-5.008-5.809-5.008-5.809s2.43,11.971-0.807,16.826c-1.574,2.36-4.293,3.855-6.814,4.773
				c-1.087,0.182-2.122,0.315-2.824,0.315c-1.401,0-4.034-1.233-5.796-2.148C596.236,131.881,598.166,135.994,600.171,136.913z"/>
			<path style="fill:#878787;stroke:#263238;stroke-linecap:round;stroke-linejoin:round;stroke-miterlimit:10;" d="
				M595.964,133.207l-0.671-2.857c-0.845-0.448-1.42-0.782-1.42-0.782l-1.35,1.841c-0.261-0.12-0.423-0.196-0.423-0.196
				s0.11,0.131,0.306,0.355l-1.851-0.765L595.964,133.207z"/>
		</g>
		<rect x="599.562" y="-0.194" style="fill:#263238;" width="1.599" height="9.069"/>
		<rect x="599.562" y="18.304" style="fill:#263238;" width="1.599" height="69.86"/>
		<polygon style="fill:#878787;stroke:#263238;stroke-linecap:round;stroke-linejoin:round;stroke-miterlimit:10;" points="
			598.151,92.151 598.151,99.119 599.817,95.938 600.271,92.908 		"/>
	</g>
</g>
<g id="Text">
	<g>
		
			<rect x="63.452" y="141.213" style="fill:#263238;stroke:#263238;stroke-linecap:round;stroke-linejoin:round;stroke-miterlimit:10;" width="66.028" height="135.443"/>
		<path style="fill:#92E3A9;" d="M86.82,254.345v-72.965H73.671v-14.334h45.59v14.334H106.22v72.965H86.82z"/>
	</g>
	<g>
		
			<rect x="138.316" y="148.647" style="fill:#92E3A9;stroke:#263238;stroke-linecap:round;stroke-linejoin:round;stroke-miterlimit:10;" width="66.028" height="135.443"/>
		<path style="fill:#263238;" d="M145.248,261.779v-87.3h19.292v35.351h13.472v-35.351h19.4v87.3h-19.4v-38.153H164.54v38.153
			H145.248z"/>
	</g>
	<g>
		
			<rect x="213.149" y="132.072" style="fill:#FFFFFF;stroke:#263238;stroke-linecap:round;stroke-linejoin:round;stroke-miterlimit:10;" width="66.028" height="135.443"/>
		<path style="fill:#263238;" d="M217.471,245.203l16.49-87.3h21.986l16.275,87.3h-17.783l-2.91-18.429h-12.825l-3.018,18.429
			H217.471z M240.428,215.241h9.269l-4.634-34.058L240.428,215.241z"/>
	</g>
	<g>
		
			<rect x="291.936" y="148.647" style="fill:#263238;stroke:#263238;stroke-linecap:round;stroke-linejoin:round;stroke-miterlimit:10;" width="66.028" height="135.443"/>
		<path style="fill:#FFFFFF;" d="M301.238,261.779v-87.3h13.58l17.891,42.034v-42.034h15.951v87.3H335.62l-17.891-45.266v45.266
			H301.238z"/>
	</g>
	<g>
		
			<rect x="373.594" y="160.563" transform="matrix(0.9997 0.0228 -0.0228 0.9997 5.3137 -9.2166)" style="fill:#92E3A9;stroke:#263238;stroke-linecap:round;stroke-linejoin:round;stroke-miterlimit:10;" width="66.028" height="135.443"/>
		<path style="fill:#263238;" d="M378.796,273.072l1.992-87.277l19.287,0.44l-0.814,35.665l15.467-35.331l18.856,0.43
			l-17.063,39.068l15.825,48.226l-19.61-0.448l-11.727-38.862l-2.126,3.401l-0.802,35.126L378.796,273.072z"/>
	</g>
	<g>
		
			<rect x="480.737" y="148.647" style="fill:#263238;stroke:#263238;stroke-linecap:round;stroke-linejoin:round;stroke-miterlimit:10;" width="66.028" height="135.443"/>
		<path style="fill:#92E3A9;" d="M504.643,261.779v-35.674l-16.598-51.626h18.214l8.299,27.591l7.437-27.591h17.46l-16.274,51.626
			v35.674H504.643z"/>
	</g>
	<g>
		
			<rect x="556.934" y="148.647" style="fill:#FFFFFF;stroke:#263238;stroke-linecap:round;stroke-linejoin:round;stroke-miterlimit:10;" width="66.028" height="135.443"/>
		<path style="fill:#263238;" d="M589.84,263.072c-6.54,0-11.713-1.15-15.52-3.449c-3.809-2.299-6.539-5.604-8.191-9.915
			c-1.653-4.311-2.479-9.447-2.479-15.412v-32.442c0-6.035,0.825-11.171,2.479-15.412c1.652-4.239,4.382-7.491,8.191-9.754
			c3.807-2.264,8.981-3.395,15.52-3.395c6.609,0,11.837,1.132,15.682,3.395c3.843,2.264,6.591,5.515,8.244,9.754
			c1.652,4.24,2.48,9.376,2.48,15.412v32.442c0,5.965-0.827,11.1-2.48,15.412c-1.653,4.311-4.401,7.616-8.244,9.915
			C601.677,261.922,596.449,263.072,589.84,263.072z M589.84,249.384c2.01,0,3.484-0.502,4.419-1.509
			c0.933-1.005,1.544-2.298,1.832-3.879c0.286-1.58,0.431-3.197,0.431-4.85v-42.033c0-1.725-0.145-3.358-0.431-4.904
			c-0.288-1.545-0.9-2.82-1.832-3.826c-0.935-1.005-2.409-1.509-4.419-1.509c-1.87,0-3.271,0.503-4.203,1.509
			c-0.935,1.007-1.546,2.281-1.833,3.826c-0.288,1.546-0.431,3.179-0.431,4.904v42.033c0,1.653,0.125,3.27,0.378,4.85
			c0.25,1.581,0.825,2.874,1.724,3.879C586.372,248.883,587.827,249.384,589.84,249.384z"/>
	</g>
	<g>
		
			<rect x="636.13" y="148.647" style="fill:#92E3A9;stroke:#263238;stroke-linecap:round;stroke-linejoin:round;stroke-miterlimit:10;" width="66.028" height="135.443"/>
		<path style="fill:#263238;" d="M669.143,263.072c-6.682,0-11.909-1.096-15.682-3.286c-3.772-2.191-6.412-5.389-7.922-9.592
			c-1.508-4.203-2.263-9.358-2.263-15.466v-60.248h19.076v63.158c0,1.797,0.143,3.594,0.431,5.389
			c0.287,1.797,0.916,3.27,1.886,4.418c0.97,1.151,2.461,1.725,4.473,1.725c2.083,0,3.593-0.574,4.527-1.725
			c0.933-1.148,1.526-2.622,1.778-4.418c0.251-1.795,0.378-3.592,0.378-5.389v-63.158h19.185v60.248
			c0,6.108-0.773,11.263-2.318,15.466c-1.545,4.203-4.186,7.401-7.922,9.592C681.035,261.976,675.826,263.072,669.143,263.072z"/>
	</g>
</g>
<g id="Character_3">
	<g>
		<path style="fill:#FFFFFF;stroke:#263238;stroke-linecap:round;stroke-linejoin:round;stroke-miterlimit:10;" d="M444.126,298.832
			c0,0,0.03-1.367-1.093-6.657c-1.124-5.29-1.783-21.597-1.783-21.597s-2.226-1.954-2.499-2.766
			c-0.273-0.812-1.214-3.418-1.214-3.418s-3.884-3.167-3.353-4.093c0.53-0.926,1.297-0.405,2.056,0.276
			c0.758,0.68,2.676,1.983,2.676,1.983s0.56-4.27,0.446-5.073c-0.114-0.803-0.162-5.585,0.596-4.905
			c0.758,0.68,1.648,6.068,2.062,7.206c0.414,1.139,1.559,7.656,1.849,8.15s6.704,24.226,6.704,24.226l3.386,7.857l-8.803,1.272
			L444.126,298.832z"/>
		<path style="fill:#92E3A9;stroke:#263238;stroke-linecap:round;stroke-linejoin:round;stroke-miterlimit:10;" d="M454.307,318.713
			l-5.609-11.928l-2.37-3.93c0,0-1.642-0.594-1.901-1.519c-0.259-0.926-1.458-2.723-0.981-3.02c0.477-0.298,8.709-4.102,8.709-4.102
			s1.165,0.891,1.424,1.816c0.259,0.926,0.689,3.785,0.689,3.785s10.169,19.506,10.14,19.842c-0.029,0.336-8.592,2.758-8.592,2.758
			L454.307,318.713z"/>
		<path style="fill:#92E3A9;stroke:#263238;stroke-linecap:round;stroke-linejoin:round;stroke-miterlimit:10;" d="M444.099,329.11
			c0,0-2.125,11.853-1.006,16.326c1.118,4.473,4.92,23.93,4.92,23.93l20.576-6.374c0,0,0.112-1.342,0.336-2.684
			c0.224-1.342-0.559-3.802-0.559-3.802s1.789-12.971,1.901-21.806c0.112-8.834-1.901-15.32-1.901-15.32s-3.466-2.237-10.735-1.677
			c-7.268,0.559-10.511,6.933-11.182,7.828C445.777,326.426,444.099,329.11,444.099,329.11z"/>
		<g>
			<path style="fill:#FFFFFF;stroke:#263238;stroke-linecap:round;stroke-linejoin:round;stroke-miterlimit:10;" d="
				M448.926,292.884c0,0-1.302,2.367-1.42,3.433c-0.118,1.065-0.473,1.184-1.184,1.894c-0.71,0.71-2.723,1.421-2.131,2.249
				c0.592,0.829,1.421,1.657,1.421,1.657s0.118,5.919,0.473,6.866c0.355,0.947,2.012,1.065,2.486,1.065s1.539,0.474,1.539,0.474
				s2.367,3.196,2.959,5.09c0.592,1.894,0.829,4.143,0.829,4.143l13.968-2.959c0,0-3.669-9.351-3.669-9.943
				c0-0.592,4.853-6.392,4.261-9.825c-0.592-3.433-9.115-7.813-13.139-7.813C451.294,289.214,448.926,292.884,448.926,292.884z"/>
			<path style="fill:#263238;" d="M449.61,297.684c-0.184,0.627-0.614,1.053-0.958,0.952c-0.345-0.101-0.475-0.692-0.291-1.319
				c0.184-0.627,0.614-1.053,0.959-0.952C449.664,296.466,449.795,297.057,449.61,297.684z"/>
			<path style="fill:none;stroke:#263238;stroke-linecap:round;stroke-linejoin:round;stroke-miterlimit:10;" d="M446.559,304.129
				c0,0,1.065,0.118,2.249-0.829"/>
			<path style="fill:#263238;stroke:#263238;stroke-linecap:round;stroke-linejoin:round;stroke-miterlimit:10;" d="
				M447.979,288.741c0,0-1.065,3.196,0.237,5.919c1.302,2.723,7.102,5.445,7.102,5.445s-0.592,2.367,0,2.604
				c0.592,0.237,1.42-0.118,1.42-0.118s2.131,1.894,1.776,3.788c-0.355,1.894-3.314,1.657-3.314,1.657s0.592,1.776,1.894,1.776
				s1.894-1.184,1.894-1.184s1.421,4.617,4.972,5.919c3.551,1.302,4.853-1.776,4.853-1.776s2.604,1.657,4.617-0.829
				c2.012-2.486,2.131-5.682,2.131-5.682l0.118,5.919c0,0,2.249-3.906,1.539-8.641c-0.71-4.735-2.723-6.155-3.906-6.155
				c-1.184,0-2.367,0.118-2.367,0.118s1.184-4.38-2.486-7.813c-3.669-3.433-10.772-4.025-14.323-3.433
				C450.584,286.847,448.098,286.61,447.979,288.741z"/>
		</g>
		<path style="fill:#92E3A9;stroke:#263238;stroke-linecap:round;stroke-linejoin:round;stroke-miterlimit:10;" d="M467.135,315.244
			c0,0-4.249-1.006-5.479-0.671c-1.23,0.336-9.729,3.467-10.176,4.473c-0.447,1.007-0.447,1.007-0.447,1.007
			s14.314-1.342,15.432-1.23c1.118,0.112,1.901,0.559,1.901,0.559s0.447-1.342,0.447-2.572
			C468.813,315.579,467.135,315.244,467.135,315.244z"/>
		<path style="fill:#FFFFFF;stroke:#263238;stroke-linecap:round;stroke-linejoin:round;stroke-miterlimit:10;" d="M424.032,315.732
			c0,0-3.489-0.916-5.176-2.378c-1.687-1.462-20.759-13.836-20.759-13.836s-0.337-2.7-0.45-3.374
			c-0.112-0.675-0.697-2.5-1.102-3.039c-0.405-0.54-0.675-3.239-1.485-1.89c-0.81,1.35-0.903,2.217-0.363,2.892
			c0.54,0.675,0.173,1.458,0.173,1.458h-9.088c0,0,1.584,2.129,2.124,2.399c0.54,0.27,2.16,0.945,2.16,0.945s0.405,0,2.16,1.62
			c1.755,1.62,5.669,2.969,5.669,2.969s17.001,17.211,18.125,18.673c1.125,1.462,4.794,2.515,4.794,2.515L424.032,315.732z"/>
		<g>
			<path style="fill:#92E3A9;stroke:#263238;stroke-linecap:round;stroke-linejoin:round;stroke-miterlimit:10;" d="
				M459.867,322.848c0,0-5.144-2.46-8.834-2.796c-3.69-0.335-22.7-3.243-22.7-3.243s-1.789-1.118-2.796-0.559
				c-1.006,0.559-3.019,8.387-2.684,8.834s11.071,3.019,17.556,4.585c6.486,1.565,11.406,2.684,11.406,2.684"/>
			<path style="fill:#92E3A9;stroke:#263238;stroke-linecap:round;stroke-linejoin:round;stroke-miterlimit:10;" d="
				M428.332,316.809c0,0-1.23,8.834-2.237,9.281c-1.006,0.447-5.703-0.671-5.927-1.566c-0.224-0.895,2.348-9.617,3.578-9.505
				C424.978,315.132,427.885,315.467,428.332,316.809z"/>
			<path style="fill:none;stroke:#263238;stroke-linecap:round;stroke-linejoin:round;stroke-miterlimit:10;" d="M449.243,331.57
				c0,0-0.112,4.92,7.045,12.636"/>
			<path style="fill:none;stroke:#263238;stroke-linecap:round;stroke-linejoin:round;stroke-miterlimit:10;" d="M451.704,340.74
				c0,0,0.895,0.895,4.697,6.374"/>
			<path style="fill:none;stroke:#263238;stroke-linecap:round;stroke-linejoin:round;stroke-miterlimit:10;" d="M459.419,352.034
				c0,0,5.927,5.479,8.387,6.709"/>
		</g>
		<g>
			<path style="fill:#92E3A9;stroke:#263238;stroke-linecap:round;stroke-linejoin:round;stroke-miterlimit:10;" d="
				M439.989,474.939l-2.219,3.206c0,0-2.63,1.315-3.616,1.644c-0.986,0.329-1.233,0.74-1.233,1.397s0.329,2.219,1.233,2.63
				c0.904,0.411,7.808,1.233,8.959,0.411c1.151-0.822,1.808-4.192,3.863-5.918c2.055-1.726,3.534-2.137,3.534-2.137l1.151,0.247
				l-0.329,8.055h0.822l1.315-9.863L439.989,474.939z"/>
			<path style="fill:#FFFFFF;stroke:#263238;stroke-linecap:round;stroke-linejoin:round;stroke-miterlimit:10;" d="
				M447.517,474.755l-7.528,0.184l-2.219,3.206c0,0,2.384,1.151,3.123,0.904C441.347,478.897,444.866,476.548,447.517,474.755z"/>
		</g>
		<g>
			<path style="fill:#92E3A9;stroke:#263238;stroke-linecap:round;stroke-linejoin:round;stroke-miterlimit:10;" d="
				M486.799,475.215l-1.825,3.445c0,0-2.456,1.617-3.397,2.06c-0.94,0.443-1.137,0.88-1.059,1.533
				c0.078,0.653,0.589,2.165,1.535,2.466c0.946,0.301,7.899,0.301,8.945-0.651c1.045-0.952,1.3-4.376,3.136-6.333
				c1.836-1.957,3.257-2.54,3.257-2.54l1.172,0.109l0.626,8.037l0.816-0.097l0.14-9.949L486.799,475.215z"/>
			<path style="fill:#FFFFFF;stroke:#263238;stroke-linecap:round;stroke-linejoin:round;stroke-miterlimit:10;" d="
				M494.252,474.142l-7.453,1.072l-1.825,3.445c0,0,2.503,0.861,3.208,0.529C488.616,478.985,491.832,476.236,494.252,474.142z"/>
		</g>
		<path style="fill:#263238;stroke:#263238;stroke-linecap:round;stroke-linejoin:round;stroke-miterlimit:10;" d="M468.595,361.572
			l-2.462-0.352c0,0-19.228,5.745-18.876,6.8c0.352,1.055,2.345,13.835,2.345,13.835s-8.424,45.528-7.713,57.38
			c0.711,11.852-2.133,35.792-2.133,35.792l13.511,1.185c0,0,3.556-46.459,4.741-49.54c1.185-3.081,3.319-18.489,3.319-18.489
			s18.015,42.192,18.963,45.985c0.948,3.793,5.452,22.518,5.452,22.518s9.244-1.659,11.141-2.133
			c1.896-0.474,3.318-1.422,3.318-1.422s-4.504-18.963-7.822-27.97c-3.319-9.007-11.852-28.918-12.8-33.422
			c-0.948-4.504-1.422-18.489-1.422-18.489s3.081-9.956,0.711-16.592C476.496,370.02,468.595,361.572,468.595,361.572z"/>
	</g>
</g>
<g id="Character_2">
	<g>
		<path style="fill:#FFFFFF;stroke:#263238;stroke-linecap:round;stroke-linejoin:round;stroke-miterlimit:10;" d="M353.657,231.069
			l14.296-18.463l3.49,3.064c-2.795,5.785-12.358,21.742-12.803,22.369c-0.517,0.728-21.944,16.404-21.944,16.404l-2.708-12.95
			L353.657,231.069z"/>
		<polygon style="fill:#FFFFFF;stroke:#263238;stroke-linecap:round;stroke-linejoin:round;stroke-miterlimit:10;" points="
			367.894,212.698 373.065,201.195 373.833,200.715 373.581,213.397 371.26,216.046 		"/>
		<g>
			<path style="fill:#FFFFFF;stroke:#263238;stroke-linecap:round;stroke-linejoin:round;stroke-miterlimit:10;" d="
				M367.894,212.698l1.459-5.169c0,0,1.829-3.657,2.194-4.389c0.366-0.731,0.549-3.474,2.012-2.926
				c1.463,0.549,1.463,2.56,1.097,3.109c-0.366,0.548-1.097,3.291-1.097,3.291s1.28,3.657,1.097,4.389
				c-0.183,0.732-1.646,2.377-1.646,2.377"/>
		</g>
		<path style="fill:#92E3A9;stroke:#263238;stroke-linecap:round;stroke-linejoin:round;stroke-miterlimit:10;" d="M367.894,212.698
			l3.367,3.348c-0.333,0.688-0.71,1.504-1.119,2.412c-0.326,0.723,0.004,3.54-0.355,4.362c-3.297,7.548-8.39,16.474-8.739,16.967
			c-0.517,0.728-24.352,14.657-24.352,14.657l-2.708-12.95l19.67-10.424l8.993-13.333l3.709-3.057L367.894,212.698z"/>
		<g>
			<path style="fill:#263238;stroke:#263238;stroke-linecap:round;stroke-linejoin:round;stroke-miterlimit:10;" d="
				M329.514,287.561l1.65,18.951l-16.594,0.601l-11.103-4.329c0,0-2.084-10.767,6.12-19.949L329.514,287.561z"/>
			<g>
				<path style="fill:#263238;stroke:#263238;stroke-linecap:round;stroke-linejoin:round;stroke-miterlimit:10;" d="
					M329.251,293.941c0,0,29.98,27.703,28.164,31.23c-1.816,3.526-24.141,38.702-24.141,38.702l-7.472-2.299l12.837-31.805
					l-20.407-13.52l0.355-18.667"/>
				<polyline style="fill:#263238;stroke:#263238;stroke-linecap:round;stroke-linejoin:round;stroke-miterlimit:10;" points="
					326.552,295.325 324.269,338.391 315.264,389.355 313.157,391.654 312.199,393.187 305.685,392.42 304.344,385.331 
					305.685,341.648 303.467,302.784 				"/>
				<g>
					<path style="fill:#92E3A9;stroke:#263238;stroke-linecap:round;stroke-linejoin:round;stroke-miterlimit:10;" d="
						M338.936,246.092c0,0,5.335,19.427,2.663,25.637c-2.672,6.21-7.318,8.95-7.318,8.95s-0.343,4.708-1.35,6.27
						c-0.742,1.151-2.251,1.087-3.454,1.195c-3.446,0.308-6.93,0.204-10.346-0.349c-3.125-0.507-7.189-1.208-9.795-3.128
						c-1.041-0.767-2.196-2.587-1.724-3.876c1.353-3.692,6.385-13.449,6.452-13.882c0.097-0.626,5.145-13.394,7.253-17.341
						c2.108-3.947,6.19-8.229,6.19-8.229L338.936,246.092z"/>
					<g>
						<path style="fill:none;stroke:#263238;stroke-linecap:round;stroke-linejoin:round;stroke-miterlimit:10;" d="
							M318.501,271.669c2.435-0.823,5.772-2.143,8.056-4.788"/>
						<path style="fill:none;stroke:#263238;stroke-linecap:round;stroke-linejoin:round;stroke-miterlimit:10;" d="
							M315.768,272.635c0,0,0.431-0.105,1.134-0.321"/>
						<path style="fill:none;stroke:#263238;stroke-linecap:round;stroke-linejoin:round;stroke-miterlimit:10;" d="
							M328.715,269.758c0,0-3.596,2.877-5.575,4.136"/>
					</g>
				</g>
				<path style="fill:#FFFFFF;stroke:#263238;stroke-linecap:round;stroke-linejoin:round;stroke-miterlimit:10;" d="
					M332.453,367.621l0.788-4.53l-8.372-2.659c0,0-4.432,4.334-4.826,8.175l-0.394,2.955c0,0,0.886,0.788,2.462,1.28
					c1.576,0.492,2.758,0.591,2.758,0.591l0.683-1.414c0.478,0.282,0.77,0.531,0.696,0.725l4.432,0.788c0,0,3.874,0.989,5.121,1.182
					c1.247,0.193,3.342-0.197,3.546-0.591c0.111-0.215-0.177-1.006-0.216-1.885c-0.037-0.836-0.525-1.584-1.275-1.954
					L332.453,367.621z"/>
				<path style="fill:#FFFFFF;stroke:#263238;stroke-linecap:round;stroke-linejoin:round;stroke-miterlimit:10;" d="
					M314.429,397.66c-0.424-0.579-1.489-5.302-1.489-5.302l-7.649-0.51c0,0-3.678,10.015-3.544,10.806l-0.22,1.802
					c0,0,2.856,1.182,4.038,1.379c1.182,0.197,2.758,0.197,2.758,0.197l0.262-1.374c1.922,0.124,11.675,1.892,12.148,1.965
					c0.501,0.078,2.279-1.654,2.462-2.659C323.948,399.826,314.853,398.239,314.429,397.66z"/>
			</g>
		</g>
		<g>
			<g>
				<g>
					<path style="fill:#FFFFFF;stroke:#263238;stroke-linecap:round;stroke-linejoin:round;stroke-miterlimit:10;" d="
						M338.936,246.092c0.977-4.502,4.55-7.788,4.55-7.788s3.602,0.849,5.081,0.624c1.479-0.225,1.373-2.865,1.161-4.014
						c-0.211-1.149,0.633-4.819,0.633-4.819s1.426-1.545,1.571-2.047c0.145-0.502-2.383-1.723-2.912-2.528
						c-0.528-0.805-0.08-1.98-0.344-4.449c-0.264-2.469-2.569-6.344-2.569-6.344s-0.767-1.429-3.326-1.069
						c-2.56,0.36-7.935,7.526-10.402,10.199c-2.467,2.673-2.888,8.225-2.713,9.376c0.175,1.151,1.542,3.156,1.594,4.441
						c0.052,1.285,0.625,2.335-1.606,4.484L338.936,246.092z"/>
					<path style="fill:#FFFFFF;stroke:#263238;stroke-linecap:round;stroke-linejoin:round;stroke-miterlimit:10;" d="
						M327.506,241.339c0,0-2.071,2.109-6.661,4.149c-4.59,2.04-11.474-0.255-17.084-0.765c-5.609-0.51-11.219,2.295-15.809,6.63
						c-4.59,4.335-10.199,9.689-10.199,9.689l3.315,6.629c0,0,12.36-14.181,20.265-15.966c7.904-1.785,12.391,0.815,18.256-0.205
						c5.865-1.02,10.066-9.344,10.066-9.344L327.506,241.339z"/>
					<path style="fill:#FFFFFF;stroke:#263238;stroke-linecap:round;stroke-linejoin:round;stroke-miterlimit:10;" d="
						M328.807,238.058c0,0-3.31,1.682-1.301,3.282c2.008,1.6,12.718,8.229,13.483,5.424c0.765-2.805,2.04-5.355,1.02-5.865
						C340.988,240.389,328.099,237.511,328.807,238.058z"/>
					
						<line style="fill:none;stroke:#263238;stroke-linecap:round;stroke-linejoin:round;stroke-miterlimit:10;" x1="347.327" y1="224.287" x2="347.661" y2="226.204"/>
					<path style="fill:none;stroke:#263238;stroke-linecap:round;stroke-linejoin:round;stroke-miterlimit:10;" d="M348.144,222.195
						c0,0-1.255-2.395-2.174,0.345"/>
					<path style="fill:none;stroke:#263238;stroke-linecap:round;stroke-linejoin:round;stroke-miterlimit:10;" d="M347.986,231.082
						l-0.36,0.658c0.93,0.735,1.696,0.576,1.696,0.576"/>
				</g>
				<path style="fill:#263238;stroke:#263238;stroke-linecap:round;stroke-linejoin:round;stroke-miterlimit:10;" d="
					M327.721,231.902c0-1.49-7.46-5.09-6.964-8.318c0.496-3.228,5.968-9.898,5.968-9.898c4.092-5.124,10.707-5.919,12.219-5.318
					c1.512,0.601,1.98-0.079,4.654,0.64c2.674,0.719,4.636,2.917,4.636,2.917l-0.29,1.003c0,0,0,0-0.31,0.508
					c-0.31,0.508-1.657,0.7-1.267,2.173c0.39,1.472-1.157,4.409-3.078,5.974c-1.921,1.565-2.785,1.799-2.574,2.947
					c0.211,1.149-2.918,1.44-2.918,1.44s-0.526,0.099-1.068,0.362c0.903,1.418,1.655,2.466,1.655,2.466l-0.527,2.79
					c0,0,0.527,1.431,0.03,4.907c-0.497,3.476-1.84,2.105-1.84,2.105l-3.983-1.086c0,0-1.024,2.778-3.259,0.543
					c-4.053-4.053-2.172-3.44-2.172-3.44S327.721,233.392,327.721,231.902z"/>
				<path style="fill:#FFFFFF;stroke:#263238;stroke-linecap:round;stroke-linejoin:round;stroke-miterlimit:10;" d="
					M338.815,226.591c0,0-1.926-2.693-3.491-0.482c-1.564,2.212,1.035,5.209,2.534,5.479c1.499,0.271,1.954-0.74,1.954-0.74"/>
			</g>
		</g>
		<g>
			
				<rect x="331.48" y="344.222" transform="matrix(-1 -1.224647e-16 1.224647e-16 -1 707.0125 693.3807)" style="fill:#FFFFFF;stroke:#263238;stroke-linecap:round;stroke-linejoin:round;stroke-miterlimit:10;" width="44.052" height="4.937"/>
			<polygon style="fill:#FFFFFF;stroke:#263238;stroke-linecap:round;stroke-linejoin:round;stroke-miterlimit:10;" points="
				319.283,378.325 319.863,374.447 332.963,374.447 335.072,378.325 			"/>
			<polygon style="fill:#FFFFFF;stroke:#263238;stroke-linecap:round;stroke-linejoin:round;stroke-miterlimit:10;" points="
				308.876,410.238 309.457,406.361 322.556,406.361 324.666,410.238 			"/>
			<polygon style="fill:#FFFFFF;stroke:#263238;stroke-linecap:round;stroke-linejoin:round;stroke-miterlimit:10;" points="
				297.752,442.151 298.332,438.274 311.432,438.274 313.542,442.151 			"/>
			<g>
				<g>
					<path style="fill:#FFFFFF;stroke:#263238;stroke-linecap:round;stroke-linejoin:round;stroke-miterlimit:10;" d="
						M406.74,484.897c-17.977-59.673-46.041-150.584-48.831-155.482c-2.76-4.292-9.703-4.737-9.849-4.745
						c-1.58-0.079-2.799-1.423-2.723-3.004c0.075-1.582,1.412-2.801,3.004-2.731c0.407,0.02,10.013,0.553,14.398,7.375
						c3.648,5.674,42.131,132.463,49.998,158.587H406.74z"/>
				</g>
			</g>
		</g>
		<g>
			<path style="fill:#FFFFFF;stroke:#263238;stroke-linecap:round;stroke-linejoin:round;stroke-miterlimit:10;" d="
				M292.905,484.897h-6.107l75.676-213.361c0.54-1.49,2.187-2.26,3.677-1.719c1.491,0.541,2.26,2.187,1.719,3.678L292.905,484.897z"
				/>
		</g>
		<g>
			<path style="fill:#92E3A9;stroke:#263238;stroke-linecap:round;stroke-linejoin:round;stroke-miterlimit:10;" d="
				M332.508,246.826c0,0,1.538,0.489,3.773,2.593c2.236,2.103,5.868,22.625,5.868,22.625s6.867,3.374,9.942,5.619
				c2.237,1.633,8.405,4.807,12.807,7.136c1.649,0.873,5.547,3.853,5.547,3.853l-3.284,5.145l-4.902-0.003l-25.906-9.483
				c-0.574-0.234-2.198-1.875-2.444-2.444l-9.39-23.874"/>
			<g>
				<path style="fill:#FFFFFF;stroke:#263238;stroke-linecap:round;stroke-linejoin:round;stroke-miterlimit:10;" d="
					M374.623,298.402c-0.381-0.214-1.028-0.641-1.62-1.043c-0.044-0.004-0.086-0.004-0.131-0.011
					c-1.766-0.298-5.711-3.551-5.711-3.551l3.284-5.145l6.222,1.229l3.607,0.154c0,0,0.69,1.185-0.503,1.801
					c-1.194,0.616-3.195,0.209-3.195,0.209l2.147,1.62l4.312,2.862c0,0,0.169,0.779-0.399,1.351
					c-0.569,0.572-4.493-2.314-4.493-2.314l1.445,1.473c0,0,3.078,0.839,3.4,1.381c0.322,0.542-0.149,1.378-0.511,1.212
					c-0.362-0.166-1.96-0.446-3.115-0.317S375.46,298.873,374.623,298.402z"/>
				
					<line style="fill:none;stroke:#263238;stroke-linecap:round;stroke-linejoin:round;stroke-miterlimit:10;" x1="376.828" y1="295.235" x2="378.142" y2="295.564"/>
				<polyline style="fill:none;stroke:#263238;stroke-linecap:round;stroke-linejoin:round;stroke-miterlimit:10;" points="
					375.07,296.649 376.025,297.159 379.361,299.313 				"/>
				
					<line style="fill:none;stroke:#263238;stroke-linecap:round;stroke-linejoin:round;stroke-miterlimit:10;" x1="373.032" y1="297.601" x2="374.623" y2="298.402"/>
			</g>
		</g>
	</g>
</g>
<g id="Character_1">
	<g>
		<g>
			<path style="fill:#263238;stroke:#263238;stroke-linecap:round;stroke-linejoin:round;stroke-miterlimit:10;" d="
				M112.546,473.398l1.508-0.905c0,0-0.151-3.167,0.151-3.77c0.301-0.603,17.522-43.298,17.522-43.298s-7.871-29.984-11.038-37.222
				c-3.167-7.238-6.216-18.805-6.216-18.805l-3.586-7.158l-34.079,3.645l-0.302-1.685l-3.317,59.74l-6.164,28.088
				c-1.062,3.186-2.405,7.215-2.405,7.215s-2.443,2.647-2.036,4.276c0.407,1.629,0.407,1.629,0.407,1.629s-1.629,3.258-1.629,4.276
				c0,0.729,0.416,3.744,0.653,5.404c-0.58,2.628-1.374,6.246-1.468,6.813c-0.151,0.905,1.633,3.669,3.744,4.423
				c2.111,0.754,9.091,1.051,9.694-0.758c0.603-1.81-2.443-8.756-2.443-8.756l0.063-1.931l0.751-0.105c0,0,1.833-0.814,1.833-2.24
				c0-1.425-0.407-3.869-0.407-3.869s2.647-2.443,3.054-4.276c0.215-0.965,1.163-5.092,2.013-8.783l13.397-31.759
				c0,0,1.843-11.634,2.295-11.936c0.452-0.302,3.542-13.221,3.542-13.221l14.589,26.508l-6.723,35.524l-0.2-0.405
				c0,0-3.665,6.923-3.665,7.737c0,0.814,0,2.443,0,2.443s-1.629,2.036-1.425,2.647c0.204,0.611,0.611,4.887,0.611,4.887v2.443
				c-0.118,1.569,1.359,1.496,1.629,1.833c0.603,0.754,2.86,0.698,3.765,1c0.905,0.302,6.032,3.318,7.69,3.167
				c1.659-0.151,6.158,0.455,6.46-1.355c0.302-1.81-2.087-3.923-3.745-5.883C115.411,477.017,112.546,473.398,112.546,473.398z"/>
			<path style="fill:#FFFFFF;stroke:#263238;stroke-linecap:round;stroke-linejoin:round;stroke-miterlimit:10;" d="
				M130.089,279.073c0,0-0.832-3.329-1.783-4.042c-0.951-0.713-2.853,0.357-2.853,0.357s0,0-2.378-0.594
				c-2.378-0.594-4.875,2.497-4.875,2.497l-1.902-0.713c0,0-2.021-0.357-1.665,0.594c0.357,0.951,2.14,1.308,2.616,1.546
				c0.476,0.238,4.637-0.119,4.637-0.119l3.567,1.665l3.81,18.368l13.013,3.608L130.089,279.073z"/>
			<path style="fill:#FFFFFF;stroke:#263238;stroke-linecap:round;stroke-linejoin:round;stroke-miterlimit:10;" d="M79.838,276.165
				c-0.951,0.238-1.427,0.832-1.902,0.951c-0.476,0.119-2.972-0.594-3.805-0.713c-0.832-0.119-2.616-0.832-3.686-0.832
				c-1.07,0-2.14-0.951-3.805-0.238c-1.664,0.713-2.539,5.599-2.539,5.599s-12.688,21.3-12.262,23.285
				c0.425,1.985,1.418,4.963,1.418,4.963l10.918-8.933l5.201-19.089c0,0,2.021-0.951,2.497-0.951c0.476,0,2.259,0.594,3.329,0
				c1.07-0.594,1.664-0.951,2.021-1.07c0.357-0.119,1.665-0.476,2.378-1.07C80.313,277.473,80.789,275.928,79.838,276.165z"/>
			<g>
				<path style="fill:#92E3A9;stroke:#263238;stroke-linecap:round;stroke-linejoin:round;stroke-miterlimit:10;" d="
					M131.777,299.938l-11.374,10.091l-13.134,4.005l-15.87-1.066l-19.504-4.247l-7.8-6.272l-11.932,6.629
					c2.018,3.042,5.255,7.309,8.842,10.845c5.996,5.911,12.912,9.841,12.912,9.841l1.534,42.079l39.94-0.082l3.824-41.522
					c0,0,2.853-3.686,3.21-4.28c0.163-0.272,5.377-2.68,10.889-8.413c3.978-4.138,5.793-9.584,8.419-13.188L131.777,299.938z"/>
				<path style="fill:#92E3A9;stroke:#263238;stroke-linecap:round;stroke-linejoin:round;stroke-miterlimit:10;" d="
					M75.449,371.844c0,0-0.677,5.402,0.136,6.417c0.812,1.015,33.103,0.203,35.337,0.203c2.234,0,7.108,0.812,6.702-0.406
					c-0.406-1.219-2.234-6.296-2.234-6.296L75.449,371.844z"/>
				<path style="fill:none;stroke:#263238;stroke-linecap:round;stroke-linejoin:round;stroke-miterlimit:10;" d="M89.979,315.065
					c0,0,0.615,8.096,3.932,11.866"/>
				<path style="fill:none;stroke:#263238;stroke-linecap:round;stroke-linejoin:round;stroke-miterlimit:10;" d="M106.956,326.2
					c-1.107,3.642-2.855,7.521-5.58,9.921"/>
				<path style="fill:none;stroke:#263238;stroke-linecap:round;stroke-linejoin:round;stroke-miterlimit:10;" d="M108.765,316.97
					c0,0-0.236,3.03-1.153,6.816"/>
				<path style="fill:none;stroke:#263238;stroke-linecap:round;stroke-linejoin:round;stroke-miterlimit:10;" d="M116.467,338.289
					c-0.288,1.153-0.593,2.343-0.916,3.562"/>
				<path style="fill:none;stroke:#263238;stroke-linecap:round;stroke-linejoin:round;stroke-miterlimit:10;" d="M119.773,323.303
					c0,0-0.954,5.247-2.71,12.554"/>
				<path style="fill:none;stroke:#263238;stroke-linecap:round;stroke-linejoin:round;stroke-miterlimit:10;" d="M79.931,345.364
					c0.48,1.68,0.994,3.292,1.541,4.781"/>
				<path style="fill:none;stroke:#263238;stroke-linecap:round;stroke-linejoin:round;stroke-miterlimit:10;" d="M74.836,318.478
					c0,0,1.466,12.807,4.321,24.016"/>
			</g>
			<g>
				<path style="fill:#FFFFFF;stroke:#263238;stroke-linecap:round;stroke-linejoin:round;stroke-miterlimit:10;" d="
					M109.39,289.453c0,0-1.237-3.574-6.598-3.849c-5.361-0.275-4.948,3.024-4.948,3.024l-1.237,0.825l-0.137,1.237
					c0,0-3.428,4.069-4.948,7.835c-2.123,5.261,0.602,6.688,1.83,8.28c0.957,1.241-0.455,3.816-1.28,5.878
					c-0.825,2.062-1.536,1.119-1.536,1.119l7.406,5.18l10.225-4.054c0,0-0.425-1.694-0.013-3.481c0.412-1.787,4.811-2.062,6.46-7.01
					c1.649-4.948-0.825-9.622-2.199-11.271C111.039,291.514,109.39,289.453,109.39,289.453z"/>
				<path style="fill:#263238;stroke:#263238;stroke-linecap:round;stroke-linejoin:round;stroke-miterlimit:10;" d="
					M112.414,293.164c-1.375-1.649-3.024-3.711-3.024-3.711s0.532-3.77-3.399-5.668c-3.931-1.898-5.152-0.542-3.931,0.136
					c1.22,0.678,0.733,1.684,0.733,1.684s-4.258-1.955-5.613-0.057c-1.356,1.898-0.572,3.905-0.572,3.905l-0.137,1.237
					c0,0,0.715-0.759,1.903-1.466c1.441-0.208,3.531-0.559,5.375-1.055c4.139,0.845,5.828,4.054,5.49,5.068
					c-0.338,1.014-0.676,1.436-0.338,3.125c0.338,1.689,0.253,3.716,0.845,3.632c0.591-0.085,1.066-0.769,2.703,0.253
					c1.351,0.845,2.027,3.885-0.253,4.899c-2.281,1.014-3.885,0.422-3.885,0.422c-1.137,0.36-5.167,6.095,1.176,5.113
					c0.001,0,3.14-2.68,3.141-2.679c1.529-0.948,1.938-1.749,2.956-4.804C117.23,298.251,113.788,294.813,112.414,293.164z"/>
				<path style="fill:#FFFFFF;stroke:#263238;stroke-linecap:round;stroke-linejoin:round;stroke-miterlimit:10;" d="
					M95.637,294.757c0,0-1.182-0.929-1.013-2.281s3.041-0.085,3.041-0.085"/>
				<path style="fill:#263238;" d="M102.278,292.42c-0.271,0.343-0.287,0.781-0.036,0.98c0.251,0.198,0.674,0.081,0.945-0.262
					c0.271-0.343,0.287-0.781,0.036-0.98C102.971,291.96,102.549,292.077,102.278,292.42z"/>
				<path style="fill:none;stroke:#263238;stroke-linecap:round;stroke-linejoin:round;stroke-miterlimit:10;" d="M100.874,291.041
					c0,0,2.703-2.281,4.054,0.507"/>
				<path style="fill:none;stroke:#263238;stroke-linecap:round;stroke-linejoin:round;stroke-miterlimit:10;" d="M98.34,291.041
					c0,0-0.533-0.617-1.871-0.351"/>
			</g>
		</g>
		<path style="fill:#263238;stroke:#263238;stroke-linecap:round;stroke-linejoin:round;stroke-miterlimit:10;" d="M92.855,296.271
			c0,0,1.293-2.956,4.896-0.831c3.603,2.125,4.434,4.25,6.189,4.711c1.755,0.462,4.65-1.48,4.958-3.789
			c0.308-2.309,0.338-3.125,0.338-3.125s2.741,3.773,1.448,5.436c-1.293,1.663-2.032,2.679-2.032,4.25
			c0,1.57-1.016,3.418-2.402,5.82c-1.386,2.402-9.7,3.233-11.732,2.771c-2.032-0.462-6.651-1.57-7.113-5.266
			c-0.462-3.695,2.771-7.852,3.51-8.776C91.654,296.548,92.855,296.271,92.855,296.271z"/>
		<path style="fill:none;stroke:#808080;stroke-linecap:round;stroke-linejoin:round;stroke-miterlimit:10;" d="M94.139,296.947
			c1.326,0.433,3.524,0.638,4.721,0.155"/>
		<path style="fill:#92E3A9;stroke:#263238;stroke-linecap:round;stroke-linejoin:round;stroke-miterlimit:10;" d="M65.167,302.658
			c0,0-10.067,8.507-11.059,9.216c-0.993,0.709-1.985,0.425-2.269-0.283c-0.284-0.709-2.269-3.687-1.56-4.254
			c0.709-0.567,12.619-7.231,13.895-7.089C65.451,300.39,65.167,302.658,65.167,302.658z"/>
		<path style="fill:#92E3A9;stroke:#263238;stroke-linecap:round;stroke-linejoin:round;stroke-miterlimit:10;" d="M128.876,298.373
			c0,0-1.095,4.071-0.387,4.638c0.709,0.567,11.399,4.61,11.966,4.185c0.567-0.425,0.48,0.007,2.464-4.313
			C143.709,301.163,128.876,298.373,128.876,298.373z"/>
	</g>
</g>
<g id="Smiley_Faces">
	<g>
		
			<ellipse id="XMLID_16_" transform="matrix(0.7259 -0.6878 0.6878 0.7259 -29.3881 93.499)" style="fill:#FFFFFF;stroke:#263238;stroke-miterlimit:10;" cx="102.605" cy="83.618" rx="34.133" ry="34.133"/>
		<path style="fill:#263238;" d="M83.373,94.788c0,0,21.946-12.525,43.099-15.558c0,0,6.067,19.999-14.152,27.74
			C94.796,113.68,83.373,94.788,83.373,94.788z"/>
		<g>
			<path style="fill:#263238;" d="M87.698,85.144c-0.724,0-1.422-0.394-1.778-1.081l-4.977-9.622
				c-0.507-0.981-0.124-2.188,0.857-2.695c0.981-0.508,2.188-0.124,2.695,0.857l4.977,9.622c0.507,0.981,0.124,2.188-0.857,2.695
				C88.321,85.073,88.007,85.144,87.698,85.144z"/>
		</g>
		<g>
			<path style="fill:#263238;" d="M114.237,75.522c-0.925,0-1.755-0.645-1.955-1.585l-2.323-10.948
				c-0.229-1.08,0.461-2.143,1.542-2.371c1.079-0.234,2.142,0.461,2.371,1.541l2.323,10.948c0.229,1.08-0.461,2.143-1.542,2.371
				C114.515,75.509,114.374,75.522,114.237,75.522z"/>
		</g>
		<path style="fill:#B5B5B5;" d="M117.688,102.977c-1.845-4.532-8.273-6.381-14.548-4.116c-3.477,1.255-6.177,3.515-7.652,6.073
			c4.55,2.286,10.209,3.324,16.71,0.834C114.307,104.961,116.115,104.014,117.688,102.977z"/>
	</g>
	<g>
		
			<ellipse id="XMLID_2_" transform="matrix(0.2228 -0.9749 0.9749 0.2228 221.9935 878.6296)" style="fill:#FFFFFF;stroke:#263238;stroke-miterlimit:10;" cx="662.038" cy="300.089" rx="24.713" ry="24.713"/>
		<path style="fill:#263238;" d="M646.177,297.311c0,0,17.997,3.293,31.129,11.474c0,0-5.962,13.908-20.773,8.77
			C643.698,313.102,646.177,297.311,646.177,297.311z"/>
		<g>
			<path style="fill:#263238;" d="M653.068,293.985c-0.401-0.337-0.604-0.881-0.481-1.428l1.729-7.651
				c0.177-0.78,0.951-1.269,1.732-1.094c0.78,0.176,1.27,0.951,1.093,1.732l-1.729,7.651c-0.177,0.78-0.951,1.27-1.732,1.093
				C653.447,294.237,653.24,294.13,653.068,293.985z"/>
		</g>
		<g>
			<path style="fill:#263238;" d="M672.256,301.028c-0.512-0.431-0.672-1.175-0.344-1.789l3.817-7.148
				c0.377-0.705,1.254-0.972,1.959-0.595c0.707,0.373,0.972,1.254,0.595,1.959l-3.817,7.148c-0.376,0.705-1.254,0.972-1.959,0.595
				C672.416,301.149,672.332,301.092,672.256,301.028z"/>
		</g>
		<path style="fill:#B5B5B5;" d="M661.369,317.846c1.091-3.371-1.608-7.392-6.141-9.063c-2.511-0.926-5.061-0.932-7.07-0.203
			c1.455,3.388,4.106,6.601,8.868,8.253C658.571,317.368,660.013,317.687,661.369,317.846z"/>
	</g>
	<g>
		
			<ellipse id="XMLID_1_" transform="matrix(0.6911 -0.7228 0.7228 0.6911 -197.4461 256.8049)" style="fill:#FFFFFF;stroke:#263238;stroke-miterlimit:10;" cx="201.7" cy="359.385" rx="24.713" ry="24.713"/>
		<path style="fill:#263238;" d="M186.148,363.558c0,0,17.706-4.608,33.064-2.73c0,0,0.462,15.125-15.133,16.715
			C190.562,378.921,186.148,363.558,186.148,363.558z"/>
		<g>
			<path style="fill:#263238;" d="M190.992,357.635c-0.506-0.137-0.92-0.544-1.038-1.092l-1.661-7.666
				c-0.169-0.782,0.327-1.552,1.109-1.722c0.782-0.169,1.553,0.327,1.722,1.109l1.661,7.666c0.169,0.782-0.327,1.552-1.109,1.722
				C191.442,357.703,191.209,357.693,190.992,357.635z"/>
		</g>
		<g>
			<path style="fill:#263238;" d="M211.36,355.924c-0.646-0.175-1.105-0.782-1.067-1.477l0.445-8.091
				c0.044-0.798,0.727-1.41,1.525-1.366c0.799,0.04,1.41,0.727,1.366,1.525l-0.445,8.091c-0.044,0.798-0.727,1.41-1.525,1.366
				C211.557,355.967,211.456,355.95,211.36,355.924z"/>
		</g>
		<path style="fill:#B5B5B5;" d="M208.585,375.765c-0.433-3.516-4.577-6.023-9.391-5.626c-2.667,0.22-4.982,1.29-6.496,2.799
			c2.748,2.458,6.508,4.252,11.522,3.74C205.846,376.513,207.289,376.193,208.585,375.765z"/>
	</g>
</g>
</svg>
